<?xml version="1.0" standalone="no"?>
<!DOCTYPE svg PUBLIC "-//W3C//DTD SVG 20010904//EN"
 "http://www.w3.org/TR/2001/REC-SVG-20010904/DTD/svg10.dtd">
<svg version="1.0" xmlns="http://www.w3.org/2000/svg"
 width="40.000000pt" height="40.000000pt" viewBox="0 0 542.000000 396.000000"
 preserveAspectRatio="xMidYMid meet">
<metadata>
Created by potrace 1.16, written by Peter Selinger 2001-2019
</metadata>
<g transform="translate(0.000000,396.000000) scale(0.100000,-0.100000)"
fill="#000000" stroke="none">
<path d="M2855 3776 c-4 -97 -11 -179 -16 -181 -4 -3 -8 -36 -8 -74 0 -80 -8
-121 -25 -121 -6 0 -3 -5 7 -11 14 -8 17 -22 15 -77 -1 -37 -5 -69 -8 -72 -10
-9 -40 -95 -40 -115 0 -11 -9 -34 -20 -52 -10 -18 -15 -35 -11 -38 5 -3 7 -33
6 -67 -4 -68 -20 -124 -28 -98 -9 28 -27 136 -27 161 0 43 -20 -1 -20 -46 -1
-37 -21 -81 -32 -70 -5 5 -23 -84 -37 -175 l-6 -45 -58 0 -57 0 -1 -35 c-2
-65 -8 -97 -28 -140 -17 -39 -20 -41 -24 -19 -4 21 -4 22 -6 3 0 -13 -10 -24
-23 -28 -35 -9 -38 -8 -38 14 0 11 -4 20 -10 20 -5 0 -10 -10 -10 -22 0 -19
-2 -20 -10 -8 -8 12 -10 8 -11 -15 -1 -17 -3 -22 -6 -12 -2 9 -9 17 -14 17
-13 0 -49 -38 -49 -51 0 -7 -9 -9 -21 -6 -41 11 -47 -33 -46 -335 l2 -276 -27
-27 c-16 -15 -28 -31 -28 -35 0 -14 -42 -19 -60 -7 -16 9 -25 4 -59 -30 -23
-22 -41 -45 -41 -51 0 -5 -20 -13 -44 -16 -37 -6 -43 -10 -39 -26 5 -18 0 -20
-36 -20 -28 0 -44 5 -47 15 -4 8 -18 15 -33 15 -20 0 -23 -2 -11 -10 12 -7 10
-11 -10 -18 -14 -5 -28 -8 -32 -5 -9 5 -54 -39 -50 -50 1 -4 -9 -19 -23 -33
-23 -23 -25 -23 -25 -6 0 11 7 22 15 26 8 3 15 10 15 16 0 6 -4 8 -10 5 -5 -3
-10 -1 -10 4 0 6 -3 10 -7 10 -20 -3 -34 2 -28 11 3 6 -1 10 -9 10 -9 0 -16 8
-16 19 0 11 -5 23 -11 27 -8 4 -9 0 -4 -15 4 -13 0 -27 -13 -41 -18 -19 -28
-20 -178 -17 -108 2 -168 8 -187 17 -20 10 -30 11 -39 2 -6 -6 -23 -8 -38 -5
-15 3 -31 0 -34 -6 -10 -16 -43 -13 -72 6 -20 13 -55 17 -167 19 -91 1 -143 6
-145 13 -5 16 26 25 41 12 10 -8 17 -7 25 1 7 7 100 12 284 14 277 4 332 7
379 19 15 4 29 2 33 -3 4 -7 141 -9 141 -2 0 1 47 1 104 2 57 0 120 4 140 9
20 4 59 10 86 13 28 2 51 5 53 5 2 1 0 6 -4 12 -4 8 -93 9 -308 5 -649 -13
-1196 -16 -1289 -8 -54 4 -101 4 -103 0 -3 -5 -11 -2 -19 5 -16 17 -205 30
-238 17 -12 -5 -15 -9 -8 -9 12 -1 12 -4 3 -13 -8 -8 -12 -46 -12 -104 l0 -93
38 -3 c20 -2 71 0 112 4 73 6 441 10 650 7 73 -1 94 -4 70 -9 -31 -7 -29 -8
23 -9 31 0 57 3 57 9 0 5 24 8 58 6 31 -2 104 2 162 9 58 7 97 13 88 14 -10 0
-18 7 -18 14 0 9 29 12 113 12 61 0 113 -3 115 -7 7 -23 0 -48 -13 -48 -11 0
-15 -12 -15 -51 0 -69 -16 -82 -80 -61 -38 12 -46 19 -43 33 3 11 14 19 24 19
24 0 25 -17 2 -23 -13 -3 -12 -5 5 -6 13 0 33 -6 45 -13 19 -10 20 -9 10 4 -7
8 -10 18 -6 21 3 4 1 7 -5 7 -7 0 -12 6 -12 13 0 7 -17 13 -46 14 -34 1 -44
-2 -40 -12 3 -8 -5 -15 -22 -18 -34 -7 -52 1 -45 19 5 13 -7 15 -73 13 -44 -1
-85 -7 -93 -13 -10 -8 -15 -8 -18 2 -3 8 -36 12 -115 12 -105 0 -109 1 -103
20 6 19 2 20 -104 20 -62 0 -112 -4 -116 -10 -3 -5 -19 -10 -34 -10 -16 0 -34
-6 -40 -14 -14 -17 -66 -26 -83 -14 -8 5 -1 8 20 8 21 0 31 4 27 11 -8 11
-205 6 -238 -6 -9 -4 -24 -2 -33 5 -11 10 -18 10 -26 2 -15 -15 -120 -16 -134
-2 -7 7 -19 6 -37 -2 -27 -13 -27 -14 -27 -120 l0 -108 53 0 c79 0 549 28 657
39 207 21 626 35 635 21 8 -12 10 -12 -155 -10 -157 2 -520 -27 -535 -42 -7
-8 -6 -9 2 -4 7 4 41 2 76 -4 35 -5 144 -12 243 -15 109 -3 180 -9 182 -15 2
-6 -8 -20 -22 -31 -14 -11 -26 -26 -26 -34 0 -7 -14 -18 -30 -25 -36 -15 -70
-55 -70 -81 0 -11 -9 -27 -20 -36 -11 -10 -20 -22 -20 -28 0 -5 5 -3 10 5 6 9
10 10 10 3 0 -17 -23 -29 -28 -15 -2 7 -12 12 -23 12 -10 0 -19 5 -19 11 0 8
-4 9 -13 0 -18 -15 -27 -4 -27 33 0 23 -3 27 -12 18 -16 -16 -38 -15 -38 2 0
18 -35 27 -49 13 -6 -6 -11 -19 -11 -29 0 -16 -3 -16 -20 -6 -11 7 -20 18 -20
25 0 8 -12 13 -30 13 -22 0 -33 -7 -44 -27 -20 -40 -67 -82 -96 -86 -17 -3
-24 -10 -22 -22 7 -37 -26 -55 -105 -55 l-73 0 0 -33 c0 -39 -8 -51 -25 -37
-17 14 -55 0 -55 -21 0 -14 -9 -21 -29 -25 -17 -4 -32 -12 -35 -20 -3 -8 -12
-14 -21 -14 -8 0 -15 -4 -15 -10 0 -5 8 -10 19 -10 14 0 17 -6 13 -26 -3 -16
1 -30 9 -35 11 -7 11 -9 1 -9 -9 0 -11 -7 -7 -20 5 -17 0 -20 -44 -26 -28 -4
-51 -11 -51 -16 0 -9 52 -23 87 -21 12 0 20 -4 17 -9 -3 -5 -25 -7 -48 -4 -23
3 -56 1 -72 -4 -16 -4 -23 -9 -16 -9 6 -1 12 -9 13 -18 0 -11 3 -13 6 -5 7 19
19 14 20 -9 1 -14 -3 -19 -13 -15 -9 4 -14 -1 -14 -14 0 -11 5 -20 10 -20 6 0
10 -7 10 -15 0 -8 6 -15 13 -15 10 0 14 -16 16 -52 2 -57 11 -81 11 -29 0 19
4 30 10 26 6 -3 10 -17 10 -31 0 -14 4 -23 9 -20 5 3 7 15 4 26 -3 11 0 20 6
20 6 0 11 -13 11 -30 0 -25 4 -30 25 -30 20 0 25 -5 25 -25 0 -14 -4 -25 -10
-25 -18 0 -25 -2 -44 -12 -13 -7 -21 -6 -27 3 -7 11 -9 11 -9 1 0 -7 -5 -10
-11 -7 -13 9 -59 -3 -59 -14 0 -17 57 -66 73 -63 9 2 25 -2 36 -8 15 -8 21 -8
21 0 0 6 7 4 16 -4 17 -17 26 -18 304 -20 165 -2 259 -11 293 -28 10 -5 62
-11 117 -13 54 -2 120 -10 146 -16 32 -8 49 -9 51 -2 4 12 47 7 80 -9 12 -6
28 -8 36 -5 8 3 20 0 26 -6 16 -16 3281 -22 3281 -7 0 7 6 7 18 1 11 -6 141
-10 309 -11 l290 0 7 46 c3 26 6 61 6 78 1 41 28 72 79 88 22 7 42 19 43 25 0
7 1 19 2 26 1 6 5 15 10 18 12 10 0 38 -20 46 -9 3 -28 17 -42 30 -14 13 -40
31 -58 39 -35 17 -44 54 -13 54 26 0 36 56 14 80 -10 11 -24 16 -33 13 -11 -4
-6 6 11 24 16 17 24 33 19 37 -5 3 -12 15 -15 26 -3 11 -1 17 4 14 6 -3 8 5 5
20 -6 34 -14 46 -32 46 -17 0 -17 1 -5 33 7 18 5 32 -10 56 -10 17 -19 43 -19
56 0 25 -9 29 -57 25 -27 -2 -32 27 -7 37 25 9 -29 54 -67 55 -23 1 -28 5 -23
17 4 9 9 26 11 38 3 11 14 24 25 26 28 8 19 41 -12 46 -14 1 -28 8 -32 15 -5
6 -8 1 -8 -14 -1 -22 -3 -21 -20 14 -11 21 -25 45 -32 54 -9 10 -9 16 -2 19
22 7 1 63 -41 107 -23 25 -47 46 -54 46 -6 0 -11 4 -11 9 0 20 -52 18 -71 -2
-18 -20 -19 -20 -19 -1 0 11 -3 15 -8 8 -8 -13 -41 -12 -62 1 -8 5 -21 10 -29
10 -8 0 -15 12 -17 28 -1 16 -8 34 -14 41 -8 11 34 15 227 21 292 9 404 12
511 14 l82 1 0 83 0 83 -302 2 c-167 0 -342 5 -389 11 -48 5 -97 7 -110 3 -19
-6 -14 -8 25 -12 62 -6 75 -30 17 -30 -30 0 -39 -3 -35 -14 4 -10 -9 -18 -46
-27 -42 -11 -48 -15 -33 -23 10 -6 27 -11 37 -11 11 0 21 -6 24 -13 2 -8 -2
-10 -14 -5 -18 7 -18 7 3 -44 3 -7 0 -13 -7 -13 -6 0 -9 4 -6 9 3 5 -6 20 -20
32 -14 13 -40 39 -57 58 -43 46 -136 135 -167 159 -14 11 -21 24 -17 28 4 5
12 2 17 -6 6 -8 10 -11 10 -6 0 19 -52 76 -70 76 -10 0 -21 8 -23 18 -4 16 -5
16 -6 -1 -1 -15 -4 -15 -21 -5 -23 15 -25 25 -7 31 6 2 2 2 -10 1 -12 -2 -23
1 -25 7 -2 7 -12 7 -30 0 -20 -8 -29 -7 -38 5 -7 7 -9 14 -5 14 4 0 2 7 -5 15
-7 9 -21 13 -31 10 -22 -7 -25 5 -6 25 9 11 8 11 -7 0 -15 -12 -20 -12 -23 -2
-3 6 -11 12 -19 12 -10 0 -12 5 -7 13 4 6 -5 4 -20 -6 -15 -9 -27 -13 -27 -7
0 17 -22 11 -27 -8 -2 -10 -13 -19 -24 -19 -11 -1 -17 2 -14 8 4 5 -3 9 -14 9
-12 0 -21 5 -21 12 0 6 -3 8 -6 5 -4 -4 -1 -13 6 -22 7 -9 10 -18 6 -22 -3 -3
-6 -2 -6 3 0 16 -38 14 -44 -3 -7 -18 1 -33 19 -33 18 0 26 -27 11 -39 -7 -6
-16 -8 -19 -4 -4 3 -7 -2 -8 -13 0 -18 -1 -18 -9 1 -5 11 -9 15 -9 9 -1 -7
-10 -14 -21 -17 -19 -5 -20 0 -20 191 0 177 -3 207 -25 295 -14 54 -25 122
-25 151 0 38 -4 56 -15 59 -8 4 -40 45 -71 94 -53 82 -57 86 -71 68 -8 -11
-18 -19 -23 -18 -4 1 -10 -10 -14 -25 -8 -37 -26 -61 -33 -44 -4 10 -8 9 -18
-4 -14 -20 -12 -27 -36 109 -6 37 -13 66 -16 64 -9 -10 -32 -195 -31 -255 1
-81 -23 -112 -88 -112 l-42 0 -5 73 c-5 81 -36 230 -49 235 -4 2 -8 31 -8 65
-1 68 -26 208 -30 167 -2 -21 -4 -19 -10 10 -7 35 -7 34 -15 -20 -6 -41 -10
-50 -16 -35 -5 14 -8 15 -9 5 0 -9 -6 -6 -15 10 l-14 25 -1 -27 c0 -16 -4 -28
-9 -28 -9 0 -21 48 -21 87 0 13 -4 22 -9 18 -5 -3 -12 5 -14 17 -4 22 -4 22
-6 2 0 -12 -8 -27 -16 -34 -22 -18 -29 8 -23 85 3 35 2 67 -2 72 -4 4 -24 52
-44 106 -39 104 -47 177 -21 177 13 0 14 3 2 23 -17 27 -47 296 -47 422 0 165
-17 125 -25 -59z m1355 -2866 c-10 -7 -11 -10 -2 -10 8 0 2 -20 -17 -58 -31
-61 -71 -108 -102 -117 -10 -4 -19 -9 -19 -13 0 -4 -18 -27 -41 -52 -22 -25
-37 -39 -34 -32 4 7 1 20 -6 28 -10 12 -8 17 7 29 10 8 25 15 33 15 11 0 10 4
-4 14 -17 12 -18 16 -5 32 13 16 13 17 -1 12 -12 -5 -15 -1 -11 18 5 30 14 31
27 2 13 -29 27 -32 51 -10 11 11 26 22 34 26 8 3 5 4 -7 2 -26 -5 -27 -3 -12
27 29 55 71 97 97 97 21 0 24 -2 12 -10z m-15 -201 c1 -73 -6 -97 -18 -66 -3
6 -6 0 -6 -15 -1 -19 3 -26 12 -22 9 3 13 -4 12 -23 0 -17 -6 -27 -14 -25 -8
2 -10 -4 -6 -18 5 -15 0 -22 -18 -29 -14 -6 -28 -19 -32 -31 -8 -26 -29 -21
-33 8 -2 15 2 22 13 22 9 0 13 5 10 10 -3 6 -1 10 4 10 6 0 11 7 11 15 0 8 4
15 9 15 12 0 19 32 12 50 -3 8 -17 15 -31 15 -39 0 -35 51 6 87 17 16 37 42
44 58 7 17 15 28 19 25 3 -3 6 -42 6 -86z m-1725 1 c0 -5 -4 -10 -9 -10 -5 0
-12 -11 -15 -25 -6 -22 -22 -30 -48 -26 -13 2 -9 -13 8 -38 10 -13 17 -37 16
-52 0 -19 4 -29 14 -29 8 0 14 -7 14 -15 0 -8 -3 -14 -7 -13 -5 1 -25 -2 -46
-6 -24 -5 -42 -4 -51 3 -7 6 -15 8 -18 5 -3 -2 -8 2 -12 11 -3 9 0 18 7 21 7
2 14 18 15 35 1 17 7 39 12 49 13 24 13 33 0 25 -5 -3 -10 -2 -10 4 0 15 66
52 83 46 8 -4 17 1 20 9 7 18 27 22 27 6z m1585 -80 c-4 -6 -2 -17 4 -24 6 -7
9 -21 5 -30 -3 -9 -2 -16 2 -16 13 0 11 -174 -1 -191 -6 -8 -17 -26 -24 -41
-12 -23 -11 -30 8 -56 14 -20 18 -33 11 -37 -13 -8 -13 -8 -27 25 l-10 25 -16
-37 c-16 -39 -46 -52 -48 -20 -1 11 -4 9 -10 -8 -6 -20 -8 -16 -5 20 1 25 6
53 10 62 6 14 3 18 -10 19 -16 1 -17 2 -2 6 19 5 28 38 28 103 0 71 3 100 12
100 4 0 8 -12 8 -26 0 -14 4 -23 10 -19 6 4 8 10 5 14 -2 5 10 12 28 15 l32 7
-23 17 c-16 13 -22 25 -19 43 6 34 18 59 29 59 5 0 6 -5 3 -10z m-2544 -229
c6 10 11 11 20 2 7 -7 21 -8 40 -3 16 5 31 5 33 1 3 -4 34 -6 71 -6 51 1 65
-2 61 -12 -4 -9 3 -13 19 -13 19 0 23 4 19 18 -5 14 -4 14 4 3 7 -10 7 -21 1
-33 -8 -14 -6 -18 8 -19 10 -1 21 -1 26 0 4 0 7 -6 7 -14 0 -8 7 -15 15 -15 8
0 15 5 15 10 0 6 5 10 10 10 6 0 9 -21 9 -47 -1 -27 -3 -40 -6 -31 -2 10 -10
15 -19 11 -8 -3 -14 1 -14 10 0 21 -35 27 -60 10 -14 -10 -19 -21 -15 -34 5
-14 2 -19 -12 -19 -15 0 -16 2 -3 10 10 7 -6 9 -55 6 -64 -5 -67 -4 -32 6 20
6 37 15 37 19 0 5 -7 6 -15 3 -10 -4 -15 0 -15 11 0 14 -9 16 -52 14 -41 -2
-53 0 -54 11 -1 8 -2 26 -3 40 -1 14 -5 20 -9 14 -4 -6 -15 -13 -24 -17 -12
-4 -18 -17 -18 -39 -1 -27 -2 -30 -11 -15 -5 9 -17 17 -24 17 -19 0 -19 14 0
30 9 7 15 20 13 29 -3 22 14 50 20 32 4 -11 6 -11 13 0z m-751 -26 c63 -9 122
-19 130 -22 28 -11 44 -12 61 -2 14 7 19 4 24 -11 8 -24 21 -26 29 -5 4 12 21
14 81 13 l75 -3 1 -85 c1 -47 1 -94 0 -105 -1 -16 2 -14 18 9 11 16 18 34 16
40 -10 31 -14 136 -5 136 6 0 10 -6 11 -12 0 -10 2 -10 6 0 3 7 25 12 59 12
36 0 54 -4 55 -12 0 -10 2 -10 6 0 7 19 43 15 44 -5 0 -11 3 -13 6 -5 2 6 13
12 23 12 16 0 17 -4 10 -30 -7 -23 -5 -32 8 -40 14 -8 13 -10 -8 -10 -15 -1
-19 -4 -10 -7 8 -4 22 -15 31 -26 16 -20 16 -20 27 11 10 30 14 32 61 32 38 0
53 -5 63 -19 11 -15 24 -19 58 -18 27 1 45 -3 47 -11 3 -8 -7 -12 -30 -12 -20
0 -42 -3 -51 -6 -11 -4 -16 -1 -16 10 0 9 -7 16 -15 16 -8 0 -15 5 -15 10 0 6
-21 10 -47 10 l-48 -1 38 -14 c48 -17 61 -29 23 -23 -31 6 -102 -9 -92 -20 4
-3 27 -5 51 -3 35 1 45 -2 45 -14 0 -18 1 -18 37 -3 31 13 123 17 123 6 0 -5
-9 -8 -20 -8 -13 0 -18 -5 -14 -15 10 -26 44 -18 44 9 0 19 5 24 20 23 16 -1
20 -8 19 -32 -1 -29 -1 -30 -9 -5 -8 22 -9 20 -7 -13 1 -24 -4 -41 -13 -47 -8
-5 -11 -10 -5 -10 5 0 -7 -9 -28 -20 -35 -19 -51 -20 -165 -16 -70 3 -133 6
-139 7 -9 2 -13 20 -13 55 0 37 -6 59 -20 75 l-19 24 -1 -35 c-1 -56 -10 -64
-71 -56 -30 3 -83 8 -119 10 -35 2 -66 9 -68 15 -2 7 -9 8 -22 1 -13 -7 -21
-7 -26 1 -5 8 -9 8 -14 -1 -5 -8 -22 -9 -53 -5 -36 6 -47 12 -49 28 -3 20 -4
20 -21 3 -16 -17 -23 -17 -75 -6 -31 7 -70 14 -87 16 -16 2 -61 6 -98 10 -37
4 -70 11 -73 15 -3 5 -12 9 -20 9 -9 0 -22 6 -30 14 -16 16 -19 41 -5 31 5 -3
13 -1 16 5 5 8 11 7 21 -1 8 -6 17 -9 21 -6 3 4 12 2 20 -4 11 -9 13 -1 15 47
3 118 -7 114 178 89z m1776 -93 c-3 -15 -2 -34 4 -42 6 -10 10 -11 10 -3 0 7
7 10 15 7 8 -4 15 -1 15 5 0 6 5 11 10 11 6 0 10 -7 10 -15 0 -18 29 -20 31
-2 1 6 3 22 4 35 2 24 12 38 20 30 3 -3 8 -42 12 -87 4 -57 9 -79 17 -71 5 5
9 26 8 45 -2 19 2 35 7 35 16 0 22 -17 23 -59 0 -36 2 -39 19 -28 15 9 19 25
20 77 1 36 1 73 0 83 -1 9 4 17 13 17 9 0 16 -4 16 -10 0 -5 7 -7 16 -3 13 5
15 -4 13 -63 -2 -40 2 -77 9 -89 10 -18 12 -16 13 20 1 22 1 48 0 58 -2 10 5
17 15 17 15 0 15 2 0 25 -24 37 -19 44 9 11 27 -31 33 -74 13 -94 -10 -10 -10
-14 0 -21 7 -4 14 -22 14 -39 1 -41 18 -42 19 -2 2 41 6 77 16 130 10 48 11
46 33 -37 5 -23 11 -65 12 -94 0 -44 -3 -55 -23 -70 -15 -12 -33 -17 -47 -14
-14 4 -21 1 -20 -7 3 -12 -15 -13 -102 -7 -18 2 -30 8 -30 17 0 10 -5 12 -17
7 -24 -11 -83 -13 -88 -4 -7 10 -102 23 -150 21 -39 -2 -40 -2 -39 30 0 17 7
34 14 36 7 3 10 0 6 -6 -5 -8 23 -28 29 -20 1 2 7 12 13 23 11 19 11 19 12 -2
0 -13 6 -23 14 -23 24 0 7 48 -20 54 -13 4 -25 14 -25 24 -2 31 3 57 12 60 5
2 9 19 9 38 0 22 4 33 11 29 5 -4 8 -19 5 -33z m1129 -6 c7 18 8 17 15 -6 8
-24 8 -24 9 -2 1 22 15 30 25 13 3 -5 6 -57 7 -116 1 -78 -3 -110 -12 -116 -7
-4 -16 -6 -20 -3 -4 2 -9 -3 -13 -11 -3 -8 -12 -12 -20 -9 -13 5 -15 28 -14
138 0 72 4 122 8 112 6 -19 7 -19 15 0z"/>
</g>
</svg>
